:SAMPLES-PER-SECOND 24
:FULLY-SPECIFIED
:DEGREES
462
root  -3.89717 38.2618 35.7558 166.19 57.9826 171.61
RightUpLeg  4.83622 -13.9894 -25.628
RightLeg  30.3427 5.23258 3.1219
RightFoot  -10.6475 -0.200945 19.6952
RightToes  -1.74623e-010 0 -2.59999e-017
Spine  5.17891 3.04008 4.17575
Spine1  13.9046 4.75789 -6.15918
HEad  -13.7661 45.3559 -24.0817
LeftShoulder1  1.85724 -2.78148 -23.2864
LeftArm  24.2204 12.7278 -42.7695
LeftForeArm  7.16306 -23.9729 -4.75242
LeftHand  -0.0576223 4.52978 9.13564
RightShoulder  3.02691 5.25443 28.6247
RightArm  0.00941252 -17.3768 40.1318
RightForeArm  129.155 69.527 148.597
RightHand  1.42766 -13.4262 -20.6812
LeftUpLeg  -8.8189 13.0654 8.98621
LeftLeg  32.0092 -7.24754 -4.49522
LeftFoot  -4.88292 0.83069 -14.2715
LeftToes  -6.27559e-011 -2.10356e-011 8.24929e-012
463
root  -3.6656 40.024 35.5413 168.232 59.0413 172.311
RightUpLeg  5.33773 -12.6066 -23.1742
RightLeg  22.6719 2.30865 0.853919
RightFoot  2.53876 -2.30765 18.9919
RightToes  -1.74623e-010 0 -2.59999e-017
Spine  3.19502 2.8828 4.61404
Spine1  11.913 4.30719 -5.32409
HEad  -8.46518 48.0196 -20.3354
LeftShoulder1  1.81718 -2.60309 -23.5024
LeftArm  22.0315 20.7419 -43.0393
LeftForeArm  8.38294 -24.2179 -4.74279
LeftHand  -0.0718897 0.68274 1.73525
RightShoulder  3.12249 5.34749 29.3587
RightArm  3.90235 -25.4754 37.4403
RightForeArm  133.679 66.595 153.242
RightHand  0.631772 -12.2319 -11.4724
LeftUpLeg  -5.3124 15.0687 9.46625
LeftLeg  21.6023 -8.85563 -3.45463
LeftFoot  7.41026 2.72769 -16.5847
LeftToes  -6.27559e-011 -2.10356e-011 8.24929e-012
464
root  -3.59137 41.1042 35.4893 169.717 59.381 172.865
RightUpLeg  4.72288 -13.2208 -21.8602
RightLeg  20.0512 2.08162 0.63164
RightFoot  7.94994 -2.75195 16.4148
RightToes  -1.74623e-010 0 -2.59999e-017
Spine  2.06755 2.62475 4.58369
Spine1  10.9996 3.85258 -4.77393
HEad  -7.90916 48.9837 -18.4824
LeftShoulder1  1.65412 -2.39991 -21.6597
LeftArm  18.0067 26.5345 -44.7964
LeftForeArm  7.83846 -25.3333 -5.01721
LeftHand  0.0180009 0.490942 -0.495327
RightShoulder  3.10458 5.38145 29.0138
RightArm  6.18781 -30.706 35.2986
RightForeArm  141.491 63.8874 156.981
RightHand  0.134444 -9.37242 -5.16131
LeftUpLeg  -4.31654 13.6069 9.9197
LeftLeg  16.3955 -7.16938 -2.61369
LeftFoot  13.3226 4.15689 -19.2363
LeftToes  -6.27559e-011 -2.10356e-011 8.24929e-012
465
root  -3.65697 41.4753 35.5893 169.364 59.4245 172.795
RightUpLeg  4.74713 -13.6117 -21.4526
RightLeg  21.1593 4.14944 1.56762
RightFoot  7.01631 -2.20546 13.8902
RightToes  -1.74623e-010 0 -2.59999e-017
Spine  2.86704 2.58087 4.10019
Spine1  10.9628 3.69764 -4.4402
HEad  -10.8788 48.4994 -19.453
LeftShoulder1  1.53388 -2.33429 -19.7986
LeftArm  17.8559 28.0185 -45.4515
LeftForeArm  6.93121 -26.2169 -5.26387
LeftHand  -0.0133747 1.07344 0.198095
RightShoulder  2.96006 5.26383 27.7993
RightArm  6.20631 -32.8739 34.2349
RightForeArm  144.084 61.6528 159.204
RightHand  0.0448736 -7.56152 -4.36598
LeftUpLeg  -3.97809 11.5009 9.99421
LeftLeg  16.5643 -4.94443 -1.77533
LeftFoot  11.9688 3.58864 -17.6149
LeftToes  -6.27559e-011 -2.10356e-011 8.24929e-012
466
root  -3.86204 41.1894 35.8174 168.589 59.5775 172.709
RightUpLeg  3.78979 -12.9384 -20.883
RightLeg  25.5227 5.71562 2.75456
RightFoot  6.30737 -2.05562 13.4515
RightToes  -1.74623e-010 0 -2.59999e-017
Spine  5.07235 2.61205 3.70805
Spine1  10.4728 3.70349 -4.40183
HEad  -13.6741 47.719 -20.5887
LeftShoulder1  1.52495 -2.40257 -19.308
LeftArm  18.3477 26.6967 -43.3466
LeftForeArm  8.01876 -27.0166 -5.3883
LeftHand  -0.0454328 1.47474 1.11444
RightShoulder  2.84164 5.13371 26.908
RightArm  4.40565 -31.9346 33.0238
RightForeArm  141.251 61.157 159.347
RightHand  0.0542656 -7.39224 -5.09383
LeftUpLeg  -4.77937 10.5944 10.305
LeftLeg  21.0553 -4.13315 -1.39788
LeftFoot  11.4635 2.65541 -13.4946
LeftToes  -6.27559e-011 -2.10356e-011 8.24929e-012
467
root  -4.09957 40.2406 36.0694 168.139 59.8027 172.523
RightUpLeg  1.83918 -13.0277 -20.5337
RightLeg  31.2921 5.70601 3.49285
RightFoot  2.47519 -1.75896 14.6016
RightToes  -1.74623e-010 0 -2.59999e-017
Spine  7.04145 2.63251 3.27819
Spine1  9.56391 3.70749 -4.38178
HEad  -15.2328 46.9399 -20.5637
LeftShoulder1  1.53071 -2.46063 -19.1425
LeftArm  18.5782 24.3254 -40.4851
LeftForeArm  6.35736 -27.2879 -5.54025
LeftHand  -0.0966987 2.64838 3.64452
RightShoulder  2.77161 5.09681 26.2075
RightArm  1.35293 -28.9368 32.157
RightForeArm  137.91 63.1772 157.297
RightHand  0.0524291 -6.97211 -6.13957
LeftUpLeg  -6.41367 10.1237 11.0112
LeftLeg  27.1588 -3.52532 -1.61273
LeftFoot  10.2639 2.35549 -12.5784
LeftToes  -6.27559e-011 -2.10356e-011 8.24929e-012
468
root  -4.29253 38.7354 36.2909 168.019 59.7717 172.327
RightUpLeg  0.675533 -14.5307 -21.0464
RightLeg  36.2584 5.87168 4.35821
RightFoot  -8.9186 -0.386783 15.3232
RightToes  -1.74623e-010 0 -2.59999e-017
Spine  8.32835 2.6333 2.82509
Spine1  8.72691 3.64476 -4.57532
HEad  -16.3208 45.9844 -20.152
LeftShoulder1  1.50734 -2.47349 -18.662
LeftArm  21.0159 20.4213 -37.8755
LeftForeArm  0.718706 -26.342 -5.62045
LeftHand  -0.119478 3.57597 6.7488
RightShoulder  2.64662 4.98445 25.113
RightArm  -1.9663 -24.5738 31.6857
RightForeArm  133.879 66.2062 153.733
RightHand  0.108309 -7.31756 -8.28801
LeftUpLeg  -8.26782 10.5796 11.8116
LeftLeg  33.4028 -3.75509 -2.29812
LeftFoot  0.70726 1.58546 -14.9944
LeftToes  -6.27559e-011 -2.10356e-011 8.24929e-012
469
root  -4.53211 37.0119 36.5104 168.944 59.309 173.124
RightUpLeg  -0.596736 -16.7584 -21.816
RightLeg  41.6076 7.18399 6.52683
RightFoot  -21.4914 1.19314 15.0311
RightToes  -1.74623e-010 0 -2.59999e-017
Spine  9.14207 2.34989 2.7439
Spine1  8.86752 3.24835 -4.55972
HEad  -19.2799 44.9924 -21.6326
LeftShoulder1  1.5314 -2.52959 -18.8387
LeftArm  21.3744 15.1984 -35.3522
LeftForeArm  -2.27974 -25.1909 -5.51151
LeftHand  -0.113398 4.09254 8.90885
RightShoulder  2.57474 4.81369 24.8804
RightArm  -4.9969 -17.6977 29.96
RightForeArm  127.026 69.1154 148.994
RightHand  0.444561 -9.69833 -12.669
LeftUpLeg  -11.6535 11.4741 12.9672
LeftLeg  40.8281 -4.99747 -4.22229
LeftFoot  -11.7678 0.0203871 -16.6211
LeftToes  -6.27559e-011 -2.10356e-011 8.24929e-012
470
root  -4.73047 35.7777 36.7004 170.031 58.658 174.343
RightUpLeg  -2.15879 -18.6115 -22.2475
RightLeg  46.8867 8.0373 8.7852
RightFoot  -28.0441 1.93421 14.4033
RightToes  -1.74623e-010 0 -2.59999e-017
Spine  9.1801 2.05685 2.17825
Spine1  10.9687 2.59222 -3.29623
HEad  -25.0187 43.948 -25.7785
LeftShoulder1  1.58992 -2.58672 -19.6169
LeftArm  16.4601 11.0807 -34.7261
LeftForeArm  -1.55238 -25.0862 -5.45051
LeftHand  0.0266982 5.6491 15.7703
RightShoulder  2.70512 4.87793 26.2549
RightArm  -8.38727 -10.6862 28.6895
RightForeArm  120.408 72.0368 142.675
RightHand  1.11413 -12.4061 -18.6467
LeftUpLeg  -15.1746 12.2582 14.0972
LeftLeg  47.2145 -5.50628 -5.89214
LeftFoot  -17.1156 -0.703248 -15.8872
LeftToes  -6.27559e-011 -2.10356e-011 8.24929e-012
471
root  -4.56624 35.9086 36.7104 170.048 58.105 174.961
RightUpLeg  -0.887433 -19.3168 -22.3779
RightLeg  46.4341 8.34591 8.9805
RightFoot  -27.001 1.83199 14.5465
RightToes  -1.74623e-010 0 -2.59999e-017
Spine  8.3561 2.22481 1.03221
Spine1  13.1569 2.22866 -1.60616
HEad  -28.545 43.7603 -28.7557
LeftShoulder1  1.59806 -2.55772 -19.895
LeftArm  12.6351 10.3907 -37.1565
LeftForeArm  -1.68065 -26.314 -5.738
LeftHand  0.34578 6.94767 25.9877
RightShoulder  2.89654 5.09035 27.7412
RightArm  -11.0975 -10.2907 31.9458
RightForeArm  120.47 73.7389 138.592
RightHand  1.72044 -14.0713 -22.8421
LeftUpLeg  -14.2314 12.6654 14.7262
LeftLeg  46.4408 -5.94989 -6.22944
LeftFoot  -15.8909 -0.516793 -15.285
LeftToes  -6.27559e-011 -2.10356e-011 8.24929e-012
472
root  -4.03522 37.4385 36.4268 169.789 57.5961 175.247
RightUpLeg  3.79186 -18.849 -22.1863
RightLeg  38.4989 8.90116 7.26934
RightFoot  -19.1537 0.997642 16.4215
RightToes  -1.74623e-010 0 -2.59999e-017
Spine  6.84411 2.40103 0.688327
Spine1  12.9633 2.29514 -1.13253
HEad  -25.237 45.7818 -27.1525
LeftShoulder1  1.54813 -2.3752 -19.8604
LeftArm  11.9131 13.7991 -40.0957
LeftForeArm  1.35004 -28.6224 -6.12487
LeftHand  0.21116 6.37182 25.0149
RightShoulder  3.03747 5.23571 28.8249
RightArm  -10.9418 -17.2019 37.7053
RightForeArm  125.961 73.1261 141.075
RightHand  1.88608 -14.6118 -23.5094
LeftUpLeg  -9.02476 12.6222 14.6737
LeftLeg  38.0226 -7.02074 -5.47585
LeftFoot  -9.94263 0.249753 -15.5227
LeftToes  -6.27559e-011 -2.10356e-011 8.24929e-012
473
root  -3.48549 39.4638 35.9868 169.827 57.1071 175.229
RightUpLeg  7.84198 -17.5889 -21.6246
RightLeg  28.9339 8.36265 4.76489
RightFoot  -5.74361 -0.970429 18.8666
RightToes  -1.74623e-010 0 -2.59999e-017
Spine  4.8034 2.18756 1.13478
Spine1  11.7248 2.35844 -1.65282
HEad  -18.4735 48.3903 -23.042
LeftShoulder1  1.46072 -1.98958 -20.1346
LeftArm  9.44973 19.4571 -41.7984
LeftForeArm  10.3752 -31.7493 -6.39912
LeftHand  -0.180465 3.72767 12.5856
RightShoulder  3.1948 5.39636 29.991
RightArm  -7.11204 -25.1745 40.0836
RightForeArm  129.093 71.1868 145.705
RightHand  1.39021 -13.6768 -19.5659
LeftUpLeg  -4.35777 11.6864 13.5975
LeftLeg  27.9034 -5.55907 -2.86973
LeftFoot  3.30471 1.90529 -14.9888
LeftToes  -6.27559e-011 -2.10356e-011 8.24929e-012
474
root  -3.14563 41.1518 35.5912 169.986 56.8146 175.121
RightUpLeg  8.52186 -16.0049 -20.678
RightLeg  23.5192 5.80779 2.54825
RightFoot  9.13355 -3.23334 18.2642
RightToes  -1.74623e-010 0 -2.59999e-017
Spine  2.8209 1.99559 1.91919
Spine1  11.7985 2.48196 -2.08108
HEad  -15.2102 49.1109 -21.0946
LeftShoulder1  1.37245 -1.64843 -20.177
LeftArm  5.64217 24.0826 -43.7791
LeftForeArm  16.5942 -34.6484 -6.79058
LeftHand  -0.159483 0.816226 3.86324
RightShoulder  3.24156 5.46748 30.2344
RightArm  -1.88267 -30.0985 38.8558
RightForeArm  132.798 68.6029 150.475
RightHand  0.483207 -11.3053 -10.1665
LeftUpLeg  -2.28678 10.0968 12.0863
LeftLeg  20.7302 -1.84531 -0.433776
LeftFoot  17.9337 3.52824 -13.8689
LeftToes  -6.27559e-011 -2.10356e-011 8.24929e-012
475
root  -2.97329 42.1128 35.3564 170.019 56.8794 175.015
RightUpLeg  7.21551 -14.1436 -19.4878
RightLeg  22.6067 3.21921 1.25318
RightFoot  17.089 -3.43892 14.0355
RightToes  -1.74623e-010 0 -2.59999e-017
Spine  1.82205 2.32205 2.54876
Spine1  12.6017 3.01294 -2.59938
HEad  -16.1497 47.9411 -21.8083
LeftShoulder1  1.34997 -1.72989 -19.278
LeftArm  4.91517 26.1702 -46.5929
LeftForeArm  14.5318 -36.3313 -7.37728
LeftHand  -0.180527 0.933158 4.6329
RightShoulder  3.04012 5.27347 28.6994
RightArm  1.61413 -32.1623 37.8528
RightForeArm  138.7 65.6571 154.869
RightHand  -0.0213077 -8.19453 -0.68181
LeftUpLeg  -1.8099 9.49658 11.0392
LeftLeg  18.035 -1.63396 -0.295891
LeftFoot  21.2525 3.90702 -13.7719
LeftToes  -6.27559e-011 -2.10356e-011 8.24929e-012
476
root  -2.9195 42.4188 35.2578 169.864 56.8155 174.822
RightUpLeg  5.91889 -12.9383 -18.7323
RightLeg  23.5797 3.00646 1.22092
RightFoot  15.8682 -2.38411 10.2849
RightToes  -1.74623e-010 0 -2.59999e-017
Spine  2.2135 2.68328 2.7007
Spine1  12.6775 3.46183 -3.12979
HEad  -17.8974 46.362 -23.11
LeftShoulder1  1.40713 -2.10246 -18.5316
LeftArm  7.885 25.8476 -47.7609
LeftForeArm  11.8324 -37.4741 -7.87278
LeftHand  -0.234786 2.02425 7.88142
RightShoulder  2.81166 5.02077 26.9955
RightArm  3.41141 -31.3768 36.2924
RightForeArm  140.478 63.1155 157.6
RightHand  -0.0897583 -6.99887 3.41273
LeftUpLeg  -2.54267 9.49839 10.1203
LeftLeg  18.6787 -4.08287 -1.23199
LeftFoot  16.8252 3.21848 -13.1987
LeftToes  -6.27559e-011 -2.10356e-011 8.24929e-012
